<?xml version="1.0" encoding="iso-8859-1"?>
<!-- Generator: Adobe Illustrator 19.0.0, SVG Export Plug-In . SVG Version: 6.00 Build 0)  -->
<svg version="1.1" id="Capa_1" xmlns="http://www.w3.org/2000/svg" xmlns:xlink="http://www.w3.org/1999/xlink" x="0px" y="0px"
	 viewBox="0 0 512 512" style="enable-background:new 0 0 512 512;" xml:space="preserve">
<g>
	<g>
		<g>
			<path d="M331.45,93.056c-4.025,0-7.287,3.261-7.287,7.287v11.968c0,4.025,3.261,7.286,7.287,7.286s7.286-3.261,7.286-7.286
				v-11.968C338.736,96.318,335.475,93.056,331.45,93.056z"/>
			<path d="M492.111,197.912c4.493-8.56,7.05-18.289,7.05-28.609c0-25.116-15.001-47.536-38.217-57.119
				c-2.755-1.136-5.028-3.389-6.399-6.342c-14.404-31.019-45.79-51.062-79.961-51.062h-7.927L343.89,9.248
				C341.04,3.544,335.306,0,328.929,0c-6.377,0-12.11,3.544-14.961,9.247l-23.041,46.078c-4.315,0.478-8.537,1.267-12.643,2.347
				l-36.097-21.339c-5.487-3.245-12.227-3.113-17.585,0.346c-5.358,3.459-8.252,9.544-7.555,15.884l5.469,49.691
				c-4.608,8.822-7.765,18.514-9.155,28.761l-45.052,17.636c-5.938,2.325-9.985,7.714-10.562,14.065
				c-0.577,6.351,2.434,12.381,7.856,15.737l42.56,26.339c-0.516,3.254-1.077,6.499-1.683,9.737l-39.578,12.647
				c-5.339-6.439-10.062-14.688-13.928-25.31c-3.499-9.62-10.535-17.302-19.812-21.629c-9.275-4.329-19.684-4.784-29.306-1.283
				c-9.619,3.5-17.301,10.536-21.628,19.813c-4.327,9.277-4.783,19.684-1.282,29.304c10.945,30.083,27.764,53.681,49.988,70.14
				c12.867,9.529,27.639,16.706,44.145,21.514l-0.563,1.704l-44.069,9.044c-5.807,1.192-10.364,5.488-11.895,11.214
				c-1.53,5.726,0.274,11.724,4.712,15.654l30.448,26.969l-4.976,15.041l-19.997-9.679c-4.923-2.384-10.675-1.791-15.007,1.548
				c-4.334,3.338-6.376,8.747-5.329,14.116l3.653,18.725c-11.836-5.34-21.774-14.548-28.009-26.546l-3.595-6.918l20.786-33.809
				c2.712-4.412,2.698-9.884-0.034-14.282c-2.733-4.397-7.63-6.841-12.789-6.357l-34.593,3.196l-1.021-1.964
				c-4.523-8.705-13.24-14.2-22.75-14.341c-0.127-0.002-0.255-0.003-0.382-0.003c-7.515,0-14.62,3.243-19.54,8.934
				c-5.004,5.789-7.178,13.443-5.96,20.998l9.976,61.901c4.361,27.072,18.26,51.773,39.135,69.554
				C74.157,502.208,100.756,512,128.177,512h190.155c0.347,0,0.686-0.031,1.027-0.052c0.654,0.028,1.313,0.052,1.974,0.052h101.282
				c9.278,0,16.825-7.548,16.825-16.825c0-23.891-19.437-43.328-43.328-43.328h-2.714v-4.182c0-14.555-5.235-28.367-14.797-39.228
				v-76.203c58.148-3.142,100.512-32.355,125.97-86.945C512.493,228.307,506.844,208.427,492.111,197.912z M327.001,15.764
				c0.493-0.984,1.319-1.191,1.927-1.191c0.608,0,1.436,0.207,1.928,1.192l19.508,39.016h-42.871L327.001,15.764z M232.509,48.922
				c0.51-0.33,1.316-0.604,2.265-0.045l26.098,15.429c-9.745,4.958-18.45,11.674-25.697,19.729l-3.639-33.067
				C231.415,49.875,231.998,49.251,232.509,48.922z M173.273,166.06c-0.936-0.579-1.067-1.421-1.011-2.027
				c0.055-0.605,0.335-1.411,1.359-1.811l38.95-15.246c0.062,14.083-0.696,28.102-2.267,42.001L173.273,166.06z M203.004,230.939
				c-1.268,5.364-2.648,10.703-4.167,16.01c-6.79-1.738-13.36-4.375-19.474-8.455L203.004,230.939z M132.929,346.43
				c-0.123-0.109-0.452-0.399-0.296-0.982c0.155-0.582,0.585-0.669,0.746-0.703l35.858-7.358l-10.543,31.865L132.929,346.43z
				 M144.119,413.304l-4.496,13.59c-0.468,1.42-1.79,2.373-3.286,2.373c-2.886,0-5.738-0.213-8.537-0.619l-5.007-25.669
				L144.119,413.304z M87.786,350.839l-15.17,24.674L61.079,353.31L87.786,350.839z M291.831,451.847h-2.714v-4.182
				c0-9.966-2.476-19.36-6.829-27.618c7.576-7.568,12.347-17.371,13.596-28.197l0.992-8.603h67.154v31.48
				c0,25.829-11.683,49.503-31.687,65.105C326.134,463.493,310.321,451.847,291.831,451.847z M364.029,324.347v44.328h-65.473
				l5.113-44.328H364.029z M305.35,309.774l1.007-8.733c1.688-14.632,14.068-25.668,28.798-25.668
				c14.999,0,27.638,11.648,28.874,26.555v7.846H305.35z M378.827,447.665v11.469c0,4.025,3.261,7.287,7.287,7.287h10.001
				c15.855,0,28.755,12.899,28.755,28.755c0,1.242-1.01,2.252-2.252,2.252H334.99c0.074-0.546,0.12-1.099,0.139-1.659
				c21.859-14.492,36.583-36.597,41.583-61.757C378.102,438.373,378.827,442.967,378.827,447.665z M364.029,235.632v36.212
				c-7.732-6.87-17.878-11.044-28.874-11.044c-22.135,0-40.74,16.581-43.274,38.571l-1.953,16.935c0,0.005-0.001,0.01-0.002,0.016
				l-6.791,58.88c-0.001,0.009-0.002,0.016-0.003,0.024l-1.724,14.955c-0.765,6.626-3.431,12.699-7.655,17.648
				c-10.885-12.034-26.614-19.609-44.081-19.609c-9.831,0-19.576,2.452-28.181,7.093c-3.542,1.91-4.865,6.331-2.955,9.872
				s6.33,4.865,9.872,2.955c6.487-3.499,13.84-5.347,21.265-5.347c24.743,0,44.872,20.129,44.872,44.871v11.469
				c0,4.025,3.261,7.287,7.286,7.287h10.001c15.854,0,28.755,12.899,28.755,28.755c0,1.242-1.01,2.252-2.252,2.252H217.05
				c-17.784,0-32.251-14.468-32.251-32.251v-17.51c0-7.804,2.032-15.488,5.878-22.22c1.997-3.495,0.781-7.945-2.714-9.941
				c-3.495-1.995-7.944-0.78-9.941,2.714c-5.101,8.928-7.796,19.112-7.796,29.448v17.51c0,12.491,4.927,23.847,12.926,32.251
				h-54.975c-23.962,0-47.204-8.557-65.445-24.094c-18.242-15.537-30.386-37.122-34.198-60.779l-9.976-61.9
				c-0.53-3.293,0.417-6.627,2.598-9.15c2.143-2.479,5.24-3.892,8.517-3.892c0.055,0,0.111,0,0.167,0.001
				c4.14,0.062,7.984,2.547,10.031,6.489l3.295,6.341c0.015,0.028,0.029,0.057,0.044,0.086l27.904,53.703
				c12.695,24.432,37.687,39.611,65.222,39.611c7.794,0,14.674-4.971,17.121-12.37l15.576-47.078
				c0.007-0.021,0.015-0.044,0.021-0.065l20.226-61.137c7.788,1.549,15.907,2.63,24.359,3.22c0.902,0.061,1.805,0.093,2.689,0.093
				c19.154,0,35.476-14.322,37.966-33.317c0.523-3.989-2.287-7.649-6.278-8.172c-3.991-0.525-7.648,2.287-8.172,6.278
				c-1.543,11.765-11.652,20.637-23.516,20.637c-0.553,0-1.122-0.02-1.685-0.058c-29.867-2.085-55.113-10.622-75.036-25.376
				c-19.887-14.729-35.016-36.063-44.967-63.413c-2.168-5.961-1.886-12.41,0.795-18.16c2.682-5.749,7.442-10.11,13.404-12.279
				c5.961-2.167,12.412-1.886,18.162,0.795c5.749,2.682,10.109,7.443,12.278,13.405c7.765,21.344,19.242,36.295,35.086,45.712
				c15.018,8.925,31.182,11.063,43.584,11.928c5.516,0.385,10.557,2.581,14.58,6.355c2.935,2.753,7.546,2.604,10.3-0.33
				c2.752-2.935,2.606-7.546-0.33-10.299c-6.405-6.007-14.763-9.651-23.535-10.262c-1.901-0.133-3.802-0.299-5.698-0.499
				c2.596-9.222,4.831-18.531,6.703-27.912c0.003-0.017,0.007-0.033,0.01-0.049c5.074-25.458,7.481-51.439,7.154-77.614
				c-0.004-0.316-0.007-0.63-0.007-0.948c0-40.568,33.005-73.573,73.573-73.573h73.884c28.521,0,54.719,16.732,66.744,42.628
				c2.919,6.282,7.911,11.139,14.058,13.674c17.74,7.322,29.203,24.455,29.203,43.647c0,25.881-20.941,46.953-46.768,47.185
				c-0.032,0-0.063,0.002-0.095,0.003c-0.111,0.001-0.221,0.009-0.332,0.009h-54.233
				C372.612,216.499,364.029,225.082,364.029,235.632z M424.549,231.072c-8.612,11.439-22.03,21.903-45.947,24.297v-19.738
				c0-2.514,2.044-4.559,4.558-4.559H424.549z M491.366,239.131c-11.976,25.681-28.167,45.331-48.123,58.406
				c-18.138,11.884-39.861,18.618-64.64,20.095v-47.628c36.86-3.183,53.917-22.758,63.542-39.134
				c16.596-1.27,31.37-9.118,41.721-20.945C492.832,216.483,496.234,228.691,491.366,239.131z"/>
			<circle cx="256.005" cy="205.125" r="7.08"/>
			<circle cx="69.235" cy="427.732" r="7.08"/>
			<path d="M412.393,184.375c6.18,7.093,15.111,11.16,24.503,11.16s18.322-4.068,24.503-11.16c2.644-3.033,2.328-7.636-0.707-10.28
				c-3.033-2.645-7.637-2.328-10.28,0.706c-3.412,3.915-8.339,6.161-13.516,6.161c-5.177,0-10.104-2.246-13.516-6.161
				c-2.645-3.033-7.247-3.349-10.28-0.706C410.065,176.739,409.748,181.342,412.393,184.375z"/>
			<circle cx="118.227" cy="462.531" r="7.08"/>
			<path d="M404.268,119.598c4.024,0,7.287-3.261,7.287-7.286v-11.968c0-4.025-3.262-7.287-7.287-7.287
				c-4.025,0-7.286,3.261-7.286,7.287v11.968C396.981,116.336,400.243,119.598,404.268,119.598z"/>
			<circle cx="289.541" cy="236.304" r="7.08"/>
			<circle cx="226.914" cy="358.927" r="7.08"/>
		</g>
	</g>
</g>
<g>
</g>
<g>
</g>
<g>
</g>
<g>
</g>
<g>
</g>
<g>
</g>
<g>
</g>
<g>
</g>
<g>
</g>
<g>
</g>
<g>
</g>
<g>
</g>
<g>
</g>
<g>
</g>
<g>
</g>
</svg>
