<svg xmlns="http://www.w3.org/2000/svg" xmlns:xlink="http://www.w3.org/1999/xlink" xmlns:fi="http://pattern.flaticon.com/" x="0" y="0" width="700" height="350" viewBox="0 0 700 350"><rect x="0px" y="0px" width="100%" height="100%" opacity="1" fill="#d6d6d6"/><defs><g transform="matrix(0.12784726917743683 0 0 0.12784726917743683 101 92)" id="L1_8"><path d="M318.495,0H150.81c-19.586,0-35.521,15.932-35.521,35.518v398.271c0,19.586,15.935,35.521,35.521,35.521h167.695    c19.58,0,35.515-15.936,35.515-35.521V35.518C354.015,15.932,338.081,0,318.495,0z M150.81,11.85h167.695    c12.029,0,21.886,9.062,23.363,20.705H127.441C128.911,20.911,138.77,11.85,150.81,11.85z M342.164,433.788    c0,13.051-10.618,23.669-23.669,23.669H150.81c-13.051,0-23.668-10.618-23.668-23.669v-3.198h215.032v3.198H342.164z     M342.164,424.663H127.142V38.481h215.032v386.182H342.164z"/><circle cx="160" cy="23" r="5"/><path d="M257.158,17.638h-44.696c-2.727,0-4.133,2.064-3.153,4.598l0.143,0.358c0.987,2.534,3.991,4.595,6.715,4.595h38.529    c2.728,0,5.479-2.14,6.17-4.778C261.535,19.781,259.885,17.638,257.158,17.638z"/></g><g transform="matrix(0.15774562900345607 0.039436407165429684 -0.039436407165429684 0.15774562900345607 280.1190194203875 104.54156654002615)" id="L1_11"><path d="M279.933,376.799V39.001c0-1.635-1.325-2.963-2.96-2.963H60.638c-1.635,0-2.963,1.328-2.963,2.963v337.798    c0,1.635,1.328,2.96,2.963,2.96h216.335C278.607,379.759,279.933,378.434,279.933,376.799z M274.012,373.838H63.601V41.964    h210.411V373.838L274.012,373.838z"/><path d="M176.959,385.685h-20.114c-4.044,0-7.34,3.296-7.34,7.338v1.676c0,4.047,3.296,7.343,7.34,7.343h20.114    c4.045,0,7.338-3.296,7.338-7.343v-1.676C184.297,388.98,181.004,385.685,176.959,385.685z M180.349,394.698    c0,1.874-1.518,3.392-3.39,3.392h-20.114c-1.864,0-3.39-1.518-3.39-3.392v-1.676c0-1.868,1.516-3.387,3.39-3.387h20.114    c1.864,0,3.39,1.519,3.39,3.387V394.698z"/><path d="M109.191,389.036H93.835c-0.482,0-0.863,0.386-0.863,0.858v7.932c0,0.478,0.381,0.863,0.863,0.863    c0.473,0,0.854-0.386,0.854-0.863v-7.078h13.642v7.078c0,0.478,0.389,0.863,0.861,0.863c0.467,0,0.853-0.386,0.853-0.863v-7.932    C110.044,389.422,109.658,389.036,109.191,389.036z"/><path d="M105.053,393.002h-7.094c-0.475,0-0.853,0.396-0.853,0.858l0,0c0,0.3,0.18,0.523,0.411,0.676    c0.135,0.086,0.267,0.178,0.442,0.178h7.094c0.172,0,0.307-0.092,0.441-0.178c0.239-0.152,0.419-0.376,0.419-0.676l0,0    C105.913,393.398,105.535,393.002,105.053,393.002z"/><path d="M239.685,389.209h-5.91l0.178-0.422l-3.012,1.275l3.012,1.27l-0.178-0.406h5.91c1.793,0,3.245,1.401,3.245,3.143    c0,1.737-1.452,3.144-3.245,3.144h-5.794c-0.472,0-0.848,0.386-0.848,0.853c0,0.473,0.376,0.858,0.848,0.858h5.794    c2.732,0,4.951-2.184,4.951-4.864C244.646,391.388,242.417,389.209,239.685,389.209z"/><path d="M374.465,56.673c-6.231-2.638-13.137,2.062-13.695,9.087l-25.426,322.195c-0.371,4.778,0.254,12.161,1.422,16.808    l2.072,8.16c1.289,5.119,3.925,6.206,5.915,6.206c1.899,0,4.464-1.016,5.987-5.855l2.656-8.414    c1.406-4.464,2.868-11.572,3.325-16.188l28.544-283.712c0.381-3.849,2.274-7.744,3.407-8.729    c3.499-3.059,5.489-9.813,4.423-15.059C391.404,72.899,386.814,61.943,374.465,56.673z M383.463,90.273    c-3.372,2.938-5.602,9.217-6.073,13.896l-28.544,283.714c-0.4,4.017-1.777,10.709-3.001,14.599l-0.838,2.661l-0.584-2.315    c-0.954-3.809-1.508-10.349-1.203-14.259l25.426-322.188c0.111-1.341,0.914-2.455,2.422-2.455c0.097,0,0.198,0,0.3,0.015    c9.196,3.926,12.674,12.388,13.984,18.794C385.966,85.8,384.458,89.41,383.463,90.273z"/><path d="M306.141,382.263V38.107C306.141,17.095,289.043,0,268.03,0H65.109c-21.013,0-38.11,17.095-38.11,38.107v344.165    c0,21.013,17.098,38.11,38.11,38.11H268.04C289.043,420.372,306.141,403.28,306.141,382.263z M38.851,382.263V38.107    c0-14.472,11.779-26.258,26.259-26.258H268.04c14.478,0,26.259,11.778,26.259,26.258v344.165    c0,14.482-11.781,26.258-26.259,26.258H65.109C50.637,408.525,38.851,396.744,38.851,382.263z"/></g><g transform="matrix(0.18314789690155603 -0.0836109994504974 0.0836109994504974 0.18314789690155603 78.35518998396117 226.1254220312238)" id="L1_13"><path d="M331.39,0H108.604c-5.896,0-10.682,4.786-10.682,10.679v418.639c0,5.885,4.796,10.679,10.682,10.679H331.39    c5.896,0,10.685-4.788,10.685-10.679V10.679C342.074,4.793,337.285,0,331.39,0z M330.222,11.849V428.14h-220.45V11.849H330.222z"/><path d="M120.501,379.949h199c1.636,0,2.961-1.325,2.961-2.961V47.161c0-1.635-1.325-2.963-2.961-2.963h-199    c-1.635,0-2.963,1.328-2.963,2.963v329.827C117.539,378.624,118.856,379.949,120.501,379.949z M123.462,50.125h193.075v323.899    H123.462V50.125L123.462,50.125z"/><path d="M153.191,391.75h-5.649l1.447-2.406c0.274-0.478,0.124-1.077-0.341-1.361c-0.49-0.269-1.081-0.132-1.358,0.341    l-2.435,4.052c-0.173,0.3-0.18,0.67-0.015,0.979l1.919,3.555c0.175,0.336,0.513,0.514,0.868,0.514c0.16,0,0.325-0.036,0.475-0.117    c0.482-0.259,0.655-0.863,0.396-1.341l-1.208-2.244h5.9c0.546,0,0.988-0.442,0.988-0.99    C154.179,392.187,153.737,391.75,153.191,391.75z"/><path d="M222.711,393.228 229.551,393.228 229.551,387.2 222.711,388.165z"/><path d="M222.711,399.926 229.551,401.714 229.551,395.249 222.711,395.249z"/><path d="M296.205,388.338c-2.59,0-4.703,2.117-4.703,4.707c0,0.863,0.3,1.63,0.706,2.326l-2.854,2.244    c-0.427,0.341-0.503,0.955-0.168,1.392c0.193,0.244,0.482,0.376,0.777,0.376c0.213,0,0.427-0.071,0.609-0.203l2.985-2.347    c0.768,0.539,1.641,0.925,2.646,0.925c2.6,0,4.707-2.118,4.707-4.713C300.912,390.455,298.794,388.338,296.205,388.338z     M296.205,395.772c-1.504,0-2.728-1.225-2.728-2.732s1.224-2.731,2.728-2.731c1.503,0,2.731,1.224,2.731,2.731    S297.708,395.772,296.205,395.772z"/></g><g transform="matrix(0.13007904589176178 0 0 0.13007904589176178 317.99999982533336 249)" id="L1_14"><circle cx="274" cy="25" r="4"/><circle cx="274" cy="37" r="4"/><path d="M297.188,26.977c3.671,0,6.652,2.979,6.652,6.652s-2.981,6.652-6.652,6.652c-3.677,0-6.652-2.979-6.652-6.652    S293.512,26.977,297.188,26.977z"/><path d="M140.284,75.119c-5.987,0-10.862,4.875-10.862,10.864v285.309c0,5.986,4.875,10.861,10.862,10.861h181.486    c5.987,0,10.862-4.875,10.862-10.861V85.983c0-5.99-4.875-10.864-10.862-10.864H140.284z M326.701,85.983v285.309    c0,2.727-2.214,4.936-4.936,4.936H140.284c-2.725,0-4.936-2.209-4.936-4.936V85.983c0-2.727,2.211-4.938,4.936-4.938h181.486    C324.487,81.044,326.701,83.256,326.701,85.983z"/><path d="M249.801,400.19h-37.539c-8.691,0-15.752,6.525-15.752,14.543c0,4.012,1.815,7.887,4.992,10.629    c3.999,3.433,11.289,4.214,17.151,4.849c1.155,0.127,2.237,0.244,3.199,0.371c2.798,0.37,6.36,0.573,10.026,0.573    c3.689,0,7.087-0.203,9.574-0.584c0.884-0.132,1.91-0.254,3.026-0.386c5.408-0.64,12.142-1.437,16.067-4.823    c3.169-2.742,4.991-6.617,4.991-10.629C265.537,406.716,258.479,400.19,249.801,400.19z M256.677,420.873    c-2.555,2.204-8.531,2.915-12.894,3.428c-1.178,0.142-2.274,0.269-3.225,0.411c-4.377,0.665-12.885,0.665-17.925-0.01    c-1.011-0.133-2.148-0.26-3.356-0.387c-4.771-0.513-11.322-1.219-13.911-3.442c-1.897-1.636-2.94-3.819-2.94-6.14    c0-4.758,4.418-8.617,9.828-8.617h37.542c5.408,0,9.811,3.859,9.811,8.617C259.616,417.054,258.57,419.237,256.677,420.873z"/><path d="M194.164,39.91h57.13c2.564,0,4.646-2.079,4.646-4.639c0-2.552-2.082-4.628-4.646-4.628h-57.13    c-2.552,0-4.631,2.077-4.631,4.628C189.533,37.831,191.612,39.91,194.164,39.91z M194.164,32.618h57.13    c1.478,0,2.671,1.193,2.671,2.653c0,1.463-1.193,2.664-2.671,2.664h-57.13c-1.463,0-2.656-1.193-2.656-2.664    C191.508,33.804,192.694,32.618,194.164,32.618z"/><path d="M173.07,403.15h-15.351c-0.472,0-0.861,0.386-0.861,0.863v7.933c0,0.472,0.389,0.857,0.861,0.857    c0.467,0,0.846-0.386,0.846-0.857v-7.079h13.644v7.079c0,0.472,0.401,0.857,0.861,0.857s0.861-0.386,0.861-0.857v-7.933    C173.931,403.536,173.535,403.15,173.07,403.15z"/><path d="M168.939,406.477h-7.094c-0.467,0-0.846,0.392-0.846,0.863c0,0.473,0.386,0.854,0.846,0.854h7.094    c0.48,0,0.861-0.381,0.861-0.854C169.8,406.868,169.411,406.477,168.939,406.477z"/><path d="M168.939,409.93h-7.094c-0.467,0-0.846,0.396-0.846,0.863c0,0.473,0.386,0.858,0.846,0.858h7.094    c0.48,0,0.861-0.386,0.861-0.858C169.8,410.326,169.411,409.93,168.939,409.93z"/><path d="M303.571,404.953h-5.911l0.173-0.416l-3.006,1.27l3.006,1.27l-0.173-0.406h5.911c1.793,0,3.24,1.406,3.24,3.144    c0,1.736-1.458,3.143-3.24,3.143h-5.799c-0.482,0-0.854,0.386-0.854,0.854c0,0.472,0.371,0.863,0.854,0.863h5.799    c2.732,0,4.951-2.188,4.951-4.87C308.522,407.132,306.304,404.953,303.571,404.953z"/><path d="M357.424,82.601C357.424,37.057,320.375,0,274.83,0h-88.402c-45.542,0-82.593,37.049-82.593,82.601v296.054    c0,45.545,37.059,82.604,82.593,82.604h88.402c45.545,0,82.594-37.054,82.594-82.604V82.601z M345.576,378.654    c0,39.009-31.737,70.752-70.746,70.752h-88.402c-39.009,0-70.744-31.743-70.744-70.752V82.601    c0-39.009,31.743-70.751,70.744-70.751h88.402c39.009,0,70.746,31.742,70.746,70.751V378.654z"/></g><g transform="matrix(0.10575547814369202 0 0 0.10575547814369202 209.1448211342281 -5.855727553367615)" id="L1_16"><path d="M335.254,416.727c1.635,0,2.966-1.326,2.966-2.966v-25.675V67.151c0-1.635-1.331-2.963-2.966-2.963H134.793    c-1.635,0-2.963,1.328-2.963,2.963v320.936v25.675c0,1.64,1.328,2.966,2.963,2.966H335.254z M137.756,70.114h194.537v315.013    H137.756V70.114z M137.756,391.052h194.537V410.8H137.756V391.052z"/><path d="M326.363,34.893c2.539,0,4.605,2.064,4.605,4.608c0,2.542-2.066,4.604-4.605,4.604c-2.544,0-4.611-2.062-4.611-4.604    C321.751,36.958,323.819,34.893,326.363,34.893z"/><path d="M186.721,396.262h-5.903l0.175-0.416l-3.011,1.274l3.011,1.27l-0.175-0.422h5.903c1.792,0,3.245,1.407,3.245,3.148    c0,1.747-1.452,3.144-3.245,3.144h-5.792c-0.475,0-0.853,0.396-0.853,0.858c0,0.477,0.378,0.857,0.853,0.857h5.792    c2.732,0,4.961-2.183,4.961-4.869C191.682,398.446,189.453,396.262,186.721,396.262z"/><path d="M237.534,395.125c-0.206-0.178-0.516-0.178-0.711,0.011l-6.203,6.053c-0.149,0.143-0.19,0.36-0.119,0.559    c0.081,0.188,0.269,0.325,0.482,0.325h1.983v4.275c0,0.274,0.239,0.503,0.521,0.503h2.704c0.285,0,0.513-0.229,0.513-0.503v-3.483    h1.201v3.483c0,0.274,0.236,0.503,0.521,0.503h2.308c0.284,0,0.522-0.229,0.522-0.503v-4.275h2.382    c0.208,0,0.406-0.143,0.482-0.33c0.071-0.193,0.025-0.427-0.127-0.563L237.534,395.125z M240.738,401.036    c-0.284,0-0.513,0.229-0.513,0.513v4.275h-1.28v-3.483c0-0.279-0.229-0.513-0.513-0.513h-2.242c-0.284,0-0.515,0.229-0.515,0.513    v3.483h-1.666v-4.275c0-0.274-0.229-0.513-0.513-0.513h-1.242l4.938-4.819l5.144,4.819H240.738z"/><path d="M282.682,399.172h-1.646c-0.543,0-0.985,0.441-0.985,0.984v4.195c0,0.538,0.442,0.989,0.985,0.989h7.774    c0.543,0,0.99-0.451,0.99-0.989v-1.356h2.265v-2.839v-2.833h-9.384V399.172z M287.826,403.367h-5.799v-2.22h5.799V403.367z"/><path d="M335.254,470.05c11.983,0,21.729-9.739,21.729-21.724V21.726C356.983,9.742,347.238,0,335.254,0H134.793    c-11.984,0-21.726,9.742-21.726,21.726v426.601c0,11.984,9.742,21.724,21.726,21.724H335.254z M124.919,448.327V21.726    c0-5.443,4.431-9.877,9.874-9.877h200.461c5.443,0,9.876,4.434,9.876,9.877v426.601c0,5.443-4.433,9.877-9.876,9.877H134.793    C129.342,458.204,124.919,453.776,124.919,448.327z"/></g><g transform="matrix(-0.13358446955680847 0 0 0.13358446955680847 79.00013242378827 18)" id="L1_17"><path d="M179.37,387.604c-12.088,0-21.924,9.836-21.924,21.917c0,12.085,9.836,21.916,21.924,21.916    c12.085,0,21.914-9.836,21.914-21.916C201.283,397.44,191.455,387.604,179.37,387.604z M179.37,425.359    c-8.737,0-15.849-7.099-15.849-15.838c0-8.729,7.112-15.839,15.849-15.839c8.729,0,15.838,7.1,15.838,15.839    S188.099,425.359,179.37,425.359z" fill="#000000"/><path d="M186.778,399.07h-14.835c-1.676,0-3.034,1.361-3.034,3.042v14.833c0,1.676,1.358,3.042,3.034,3.042h14.835    c1.683,0,3.042-1.356,3.042-3.042v-14.833C189.82,400.432,188.454,399.07,186.778,399.07z M183.739,413.903h-8.755v-8.749h8.755    V413.903z" fill="#000000"/><path d="M269.953,379.754c1.671,0,3.042-1.355,3.042-3.042V72.442c0-1.673-1.361-3.042-3.042-3.042H88.796    c-1.676,0-3.042,1.361-3.042,3.042v304.27c0,1.676,1.358,3.042,3.042,3.042H269.953z M91.838,75.484h175.073v298.187H91.838    V75.484z" fill="#000000"/><path d="M168.127,38.062h22.482c1.676,0,3.042-1.358,3.042-3.042c0-1.681-1.358-3.042-3.042-3.042h-22.482    c-1.684,0-3.042,1.361-3.042,3.042C165.085,36.704,166.443,38.062,168.127,38.062z" fill="#000000"/><path d="M159.35,52.893h40.037c1.676,0,3.042-1.361,3.042-3.042c0-1.684-1.358-3.042-3.042-3.042H159.35    c-1.673,0-3.042,1.358-3.042,3.042C156.308,51.531,157.669,52.893,159.35,52.893z" fill="#000000"/><path d="M114.866,449.154h128.991c27.121,0,49.185-22.063,49.185-49.185V49.186C293.042,22.066,270.979,0,243.857,0H114.866    C87.745,0,65.689,22.066,65.689,49.186V399.97C65.689,427.091,87.752,449.154,114.866,449.154z M77.744,49.186    c0-20.47,16.653-37.13,37.122-37.13h128.991c20.475,0,37.13,16.653,37.13,37.13V399.97c0,20.469-16.655,37.13-37.13,37.13H114.866    c-20.469,0-37.122-16.65-37.122-37.13V49.186z" fill="#000000"/><path d="M369.877,0.673h-16.062c-7.49,0-13.588,6.091-13.588,13.586v421.292c0,7.49,6.093,13.589,13.588,13.589h16.062    c7.49,0,13.589-6.089,13.589-13.589V14.251C383.466,6.764,377.367,0.673,369.877,0.673z M371.411,435.551    c0,0.848-0.69,1.533-1.534,1.533h-16.062c-0.843,0-1.533-0.686-1.533-1.533v-43.244H371.4v43.244H371.411z M371.411,386.224    h-19.119V14.251c0-0.845,0.686-1.531,1.534-1.531h16.051c0.844,0,1.534,0.686,1.534,1.531V386.224z" fill="#000000"/><circle cx="361" cy="105" r="6" fill="#000000"/><circle cx="361" cy="135" r="6" fill="#000000"/><path d="M361.859,70.523c1.676,0,3.031-1.358,3.031-3.039V52.047c0-1.676-1.355-3.042-3.031-3.042s-3.042,1.358-3.042,3.042    v15.437C358.817,69.165,360.179,70.523,361.859,70.523z" fill="#000000"/></g></defs><g fi:class="KUsePattern"><pattern id="pattern_L1_8" width="350" height="350" patternUnits="userSpaceOnUse"><use xlink:href="#L1_8" x="-350" y="-350"/><use xlink:href="#L1_8" x="0" y="-350"/><use xlink:href="#L1_8" x="350" y="-350"/><use xlink:href="#L1_8" x="-350" y="0"/><use xlink:href="#L1_8" x="0" y="0"/><use xlink:href="#L1_8" x="350" y="0"/><use xlink:href="#L1_8" x="-350" y="350"/><use xlink:href="#L1_8" x="0" y="350"/><use xlink:href="#L1_8" x="350" y="350"/></pattern><rect x="0" y="0" width="100%" height="100%" fill="url(#pattern_L1_8)"/></g><g fi:class="KUsePattern"><pattern id="pattern_L1_11" width="350" height="350" patternUnits="userSpaceOnUse"><use xlink:href="#L1_11" x="-350" y="-350"/><use xlink:href="#L1_11" x="0" y="-350"/><use xlink:href="#L1_11" x="350" y="-350"/><use xlink:href="#L1_11" x="-350" y="0"/><use xlink:href="#L1_11" x="0" y="0"/><use xlink:href="#L1_11" x="350" y="0"/><use xlink:href="#L1_11" x="-350" y="350"/><use xlink:href="#L1_11" x="0" y="350"/><use xlink:href="#L1_11" x="350" y="350"/></pattern><rect x="0" y="0" width="100%" height="100%" fill="url(#pattern_L1_11)"/></g><g fi:class="KUsePattern"><pattern id="pattern_L1_13" width="350" height="350" patternUnits="userSpaceOnUse"><use xlink:href="#L1_13" x="-350" y="-350"/><use xlink:href="#L1_13" x="0" y="-350"/><use xlink:href="#L1_13" x="350" y="-350"/><use xlink:href="#L1_13" x="-350" y="0"/><use xlink:href="#L1_13" x="0" y="0"/><use xlink:href="#L1_13" x="350" y="0"/><use xlink:href="#L1_13" x="-350" y="350"/><use xlink:href="#L1_13" x="0" y="350"/><use xlink:href="#L1_13" x="350" y="350"/></pattern><rect x="0" y="0" width="100%" height="100%" fill="url(#pattern_L1_13)"/></g><g fi:class="KUsePattern"><pattern id="pattern_L1_14" width="350" height="350" patternUnits="userSpaceOnUse"><use xlink:href="#L1_14" x="-350" y="-350"/><use xlink:href="#L1_14" x="0" y="-350"/><use xlink:href="#L1_14" x="350" y="-350"/><use xlink:href="#L1_14" x="-350" y="0"/><use xlink:href="#L1_14" x="0" y="0"/><use xlink:href="#L1_14" x="350" y="0"/><use xlink:href="#L1_14" x="-350" y="350"/><use xlink:href="#L1_14" x="0" y="350"/><use xlink:href="#L1_14" x="350" y="350"/></pattern><rect x="0" y="0" width="100%" height="100%" fill="url(#pattern_L1_14)"/></g><g fi:class="KUsePattern"><pattern id="pattern_L1_16" width="350" height="350" patternUnits="userSpaceOnUse"><use xlink:href="#L1_16" x="-350" y="-350"/><use xlink:href="#L1_16" x="0" y="-350"/><use xlink:href="#L1_16" x="350" y="-350"/><use xlink:href="#L1_16" x="-350" y="0"/><use xlink:href="#L1_16" x="0" y="0"/><use xlink:href="#L1_16" x="350" y="0"/><use xlink:href="#L1_16" x="-350" y="350"/><use xlink:href="#L1_16" x="0" y="350"/><use xlink:href="#L1_16" x="350" y="350"/></pattern><rect x="0" y="0" width="100%" height="100%" fill="url(#pattern_L1_16)"/></g><g fi:class="KUsePattern"><pattern id="pattern_L1_17" width="350" height="350" patternUnits="userSpaceOnUse"><use xlink:href="#L1_17" x="-350" y="-350"/><use xlink:href="#L1_17" x="0" y="-350"/><use xlink:href="#L1_17" x="350" y="-350"/><use xlink:href="#L1_17" x="-350" y="0"/><use xlink:href="#L1_17" x="0" y="0"/><use xlink:href="#L1_17" x="350" y="0"/><use xlink:href="#L1_17" x="-350" y="350"/><use xlink:href="#L1_17" x="0" y="350"/><use xlink:href="#L1_17" x="350" y="350"/></pattern><rect x="0" y="0" width="100%" height="100%" fill="url(#pattern_L1_17)"/></g></svg>