<svg xmlns="http://www.w3.org/2000/svg" xmlns:xlink="http://www.w3.org/1999/xlink" xmlns:fi="http://pattern.flaticon.com/" x="0" y="0" width="700" height="350" viewBox="0 0 700 350"><rect x="0px" y="0px" width="100%" height="100%" opacity="1" fill="#dfebed"/><defs><g transform="matrix(0.09269858779686396 0.029663546744591072 -0.029663546744591072 0.09269858779686396 -14.103006806678687 144.72644153737662)" id="L1_3"><path d="M364.351,175.932v-18.992c0-3.3-2.696-5.994-5.997-5.994V21.993C358.354,9.859,348.488,0,336.362,0H136.449    c-12.134,0-21.993,9.859-21.993,21.993v434.822c0,12.132,9.859,21.998,21.993,21.998h199.917c12.126,0,21.992-9.866,21.992-21.998    v-43.976c3.306,0,5.997-2.686,5.997-5.996v-41.98c0-3.311-2.691-5.997-5.997-5.997v-88.971c3.306,0,5.997-2.696,5.997-5.997    v-64.976c0-3.311-2.691-5.997-5.997-5.997v-10.996C361.665,181.929,364.351,179.242,364.351,175.932z M352.357,169.937    c-3.301,0-5.997,2.694-5.997,5.995v22.99c0,3.309,2.696,5.995,5.997,5.995v52.979c-3.301,0-5.997,2.686-5.997,5.996v100.956    c0,3.306,2.696,5.991,5.997,5.991v29.991c-3.301,0-5.997,2.696-5.997,5.997v49.982c0,5.515-4.483,9.993-9.998,9.993H136.449    c-5.515,0-10.001-4.479-10.001-9.993V21.993c0-5.515,4.479-10.001,10.001-10.001h199.917c5.505,0,10.003,4.479,10.003,10.001    v134.939c0,3.311,2.691,5.997,5.992,5.997v7.008H352.357z"/><path d="M335.188,26.931H138.354c-4.898,0-8.887,3.989-8.887,8.887v412.771c0,4.896,3.989,8.887,8.887,8.887h196.834    c4.9,0,8.887-3.991,8.887-8.887V35.817C344.075,30.92,340.088,26.931,335.188,26.931z M342.105,448.588    c0,3.804-3.108,6.911-6.917,6.911H138.354c-3.809,0-6.914-3.107-6.914-6.911V35.817c0-3.809,3.105-6.911,6.914-6.911h196.834    c3.809,0,6.917,3.103,6.917,6.911V448.588z"/><path d="M331.238,71.059H140.992c-1.635,0-2.961,1.328-2.961,2.963v312.707v28.97c0,1.635,1.326,2.961,2.961,2.961h190.246    c1.635,0,2.966-1.326,2.966-2.961v-28.97V74.021C334.204,72.387,332.873,71.059,331.238,71.059z M328.278,412.732H143.955v-23.044    h184.323V412.732z M328.278,383.768H143.955V76.984h184.323V383.768z"/><path d="M219.652,42.739h33.897c1.636,0,2.966-1.328,2.966-2.963c0-1.635-1.33-2.963-2.966-2.963h-33.897    c-1.635,0-2.963,1.328-2.963,2.963C216.689,41.418,218.017,42.739,219.652,42.739z"/><circle cx="156" cy="39" r="5"/><path d="M164.596,398.87h4.725c1.437,0,2.608,1.132,2.608,2.514c0,1.396-1.171,2.528-2.608,2.528h-4.628    c-0.389,0-0.696,0.31-0.696,0.681c0,0.386,0.307,0.695,0.696,0.695h4.628c2.189,0,3.981-1.757,3.981-3.904    c0-2.144-1.792-3.891-3.981-3.891h-4.725l0.145-0.335l-2.427,1.016l2.427,1.021L164.596,398.87z"/><path d="M234.482,402.14v3.428c0,0.214,0.181,0.406,0.417,0.406h2.158c0.229,0,0.419-0.183,0.419-0.406v-2.787h0.955v2.787    c0,0.214,0.183,0.406,0.419,0.406h1.849c0.229,0,0.419-0.183,0.419-0.406v-3.428h1.896c0.183,0,0.325-0.111,0.401-0.259    c0.051-0.167,0.015-0.34-0.107-0.467l-5.184-4.829c-0.158-0.157-0.404-0.157-0.569,0l-4.954,4.844    c-0.127,0.112-0.157,0.295-0.094,0.452c0.045,0.157,0.198,0.259,0.371,0.259H234.482z M237.861,397.448l4.116,3.854h-1.279    c-0.213,0-0.419,0.184-0.419,0.422v3.428h-1.019v-2.798c0-0.229-0.183-0.417-0.419-0.417h-1.792c-0.231,0-0.419,0.178-0.419,0.417    v2.798h-1.343v-3.428c0-0.233-0.18-0.422-0.403-0.422h-1.003L237.861,397.448z"/><path d="M301.08,404.755h6.23c0.437,0,0.808-0.345,0.808-0.797v-1.082h1.808v-2.274v-2.275h-7.51v1.483h-1.331    c-0.432,0-0.787,0.355-0.787,0.797v3.361C300.288,404.41,300.643,404.755,301.08,404.755z M301.862,401.398h4.646v1.777h-4.646    V401.398z"/></g><g transform="matrix(-0.1038224228548874 0.05191121336495431 0.05191121336495431 0.1038224228548874 187.4487551571975 225.20767323305557)" id="L1_4"><path d="M364.351,175.932v-18.992c0-3.3-2.696-5.994-5.997-5.994V21.993C358.354,9.859,348.488,0,336.362,0H136.449    c-12.134,0-21.993,9.859-21.993,21.993v434.822c0,12.132,9.859,21.998,21.993,21.998h199.917c12.126,0,21.992-9.866,21.992-21.998    v-43.976c3.306,0,5.997-2.686,5.997-5.996v-41.98c0-3.311-2.691-5.997-5.997-5.997v-88.971c3.306,0,5.997-2.696,5.997-5.997    v-64.976c0-3.311-2.691-5.997-5.997-5.997v-10.996C361.665,181.929,364.351,179.242,364.351,175.932z M352.357,169.937    c-3.301,0-5.997,2.694-5.997,5.995v22.99c0,3.309,2.696,5.995,5.997,5.995v52.979c-3.301,0-5.997,2.686-5.997,5.996v100.956    c0,3.306,2.696,5.991,5.997,5.991v29.991c-3.301,0-5.997,2.696-5.997,5.997v49.982c0,5.515-4.483,9.993-9.998,9.993H136.449    c-5.515,0-10.001-4.479-10.001-9.993V21.993c0-5.515,4.479-10.001,10.001-10.001h199.917c5.505,0,10.003,4.479,10.003,10.001    v134.939c0,3.311,2.691,5.997,5.992,5.997v7.008H352.357z"/><path d="M335.188,26.931H138.354c-4.898,0-8.887,3.989-8.887,8.887v412.771c0,4.896,3.989,8.887,8.887,8.887h196.834    c4.9,0,8.887-3.991,8.887-8.887V35.817C344.075,30.92,340.088,26.931,335.188,26.931z M342.105,448.588    c0,3.804-3.108,6.911-6.917,6.911H138.354c-3.809,0-6.914-3.107-6.914-6.911V35.817c0-3.809,3.105-6.911,6.914-6.911h196.834    c3.809,0,6.917,3.103,6.917,6.911V448.588z"/><path d="M331.238,71.059H140.992c-1.635,0-2.961,1.328-2.961,2.963v312.707v28.97c0,1.635,1.326,2.961,2.961,2.961h190.246    c1.635,0,2.966-1.326,2.966-2.961v-28.97V74.021C334.204,72.387,332.873,71.059,331.238,71.059z M328.278,412.732H143.955v-23.044    h184.323V412.732z M328.278,383.768H143.955V76.984h184.323V383.768z"/><path d="M219.652,42.739h33.897c1.636,0,2.966-1.328,2.966-2.963c0-1.635-1.33-2.963-2.966-2.963h-33.897    c-1.635,0-2.963,1.328-2.963,2.963C216.689,41.418,218.017,42.739,219.652,42.739z"/><circle cx="156" cy="39" r="5"/><path d="M164.596,398.87h4.725c1.437,0,2.608,1.132,2.608,2.514c0,1.396-1.171,2.528-2.608,2.528h-4.628    c-0.389,0-0.696,0.31-0.696,0.681c0,0.386,0.307,0.695,0.696,0.695h4.628c2.189,0,3.981-1.757,3.981-3.904    c0-2.144-1.792-3.891-3.981-3.891h-4.725l0.145-0.335l-2.427,1.016l2.427,1.021L164.596,398.87z"/><path d="M234.482,402.14v3.428c0,0.214,0.181,0.406,0.417,0.406h2.158c0.229,0,0.419-0.183,0.419-0.406v-2.787h0.955v2.787    c0,0.214,0.183,0.406,0.419,0.406h1.849c0.229,0,0.419-0.183,0.419-0.406v-3.428h1.896c0.183,0,0.325-0.111,0.401-0.259    c0.051-0.167,0.015-0.34-0.107-0.467l-5.184-4.829c-0.158-0.157-0.404-0.157-0.569,0l-4.954,4.844    c-0.127,0.112-0.157,0.295-0.094,0.452c0.045,0.157,0.198,0.259,0.371,0.259H234.482z M237.861,397.448l4.116,3.854h-1.279    c-0.213,0-0.419,0.184-0.419,0.422v3.428h-1.019v-2.798c0-0.229-0.183-0.417-0.419-0.417h-1.792c-0.231,0-0.419,0.178-0.419,0.417    v2.798h-1.343v-3.428c0-0.233-0.18-0.422-0.403-0.422h-1.003L237.861,397.448z"/><path d="M301.08,404.755h6.23c0.437,0,0.808-0.345,0.808-0.797v-1.082h1.808v-2.274v-2.275h-7.51v1.483h-1.331    c-0.432,0-0.787,0.355-0.787,0.797v3.361C300.288,404.41,300.643,404.755,301.08,404.755z M301.862,401.398h4.646v1.777h-4.646    V401.398z"/></g><g transform="matrix(0.16650119423866272 0 0 0.16650119423866272 310.81935374948546 310.8115035724453)" id="L1_5"><path d="M135.817,396.216H334.82c1.635,0,2.96-1.325,2.96-2.96V63.429c0-1.636-1.325-2.963-2.96-2.963H135.817    c-1.635,0-2.963,1.328-2.963,2.963v329.827C132.854,394.891,134.182,396.216,135.817,396.216z M138.78,66.392h193.075v323.898    H138.78V66.392L138.78,66.392z"/><path d="M170.212,408.023h-5.647l1.445-2.412c0.277-0.478,0.127-1.076-0.34-1.36c-0.479-0.274-1.074-0.133-1.358,0.34    l-2.432,4.052c-0.175,0.3-0.183,0.671-0.015,0.98l1.919,3.555c0.173,0.335,0.513,0.518,0.869,0.518    c0.157,0,0.325-0.04,0.475-0.122c0.479-0.259,0.655-0.857,0.394-1.34l-1.209-2.245h5.901c0.546,0,0.99-0.441,0.99-0.99    C171.203,408.455,170.758,408.023,170.212,408.023z"/><path d="M239.118,409.313 245.95,409.313 245.95,403.291 239.118,404.25z"/><path d="M239.118,414.812 245.95,416.589 245.95,410.13 239.118,410.13z"/><path d="M313.219,404.606c-2.59,0-4.697,2.117-4.697,4.707c0,0.863,0.3,1.63,0.7,2.325l-2.854,2.245    c-0.427,0.34-0.503,0.954-0.162,1.391c0.188,0.244,0.482,0.376,0.771,0.376c0.213,0,0.427-0.071,0.609-0.203l2.986-2.346    c0.767,0.538,1.645,0.924,2.646,0.924c2.6,0,4.707-2.117,4.707-4.712C317.926,406.723,315.818,404.606,313.219,404.606z     M313.219,412.04c-1.498,0-2.728-1.224-2.728-2.732c0-1.508,1.229-2.731,2.728-2.731c1.503,0,2.731,1.224,2.731,2.731    C315.95,410.816,314.727,412.04,313.219,412.04z"/><path d="M272.94,36.632c1.543,0,2.792,1.252,2.792,2.795c0,1.546-1.249,2.798-2.792,2.798c-1.549,0-2.799-1.252-2.799-2.798    C270.142,37.884,271.392,36.632,272.94,36.632z"/><path d="M134.964,453.303h200.709c10.35,0,18.759-8.414,18.759-18.764V37.991c0-10.349-8.409-18.763-18.759-18.763H134.964    c-10.349,0-18.763,8.415-18.763,18.763v396.544C116.201,444.878,124.622,453.303,134.964,453.303z M122.126,37.991    c0-7.079,5.758-12.837,12.837-12.837h200.709c7.079,0,12.838,5.758,12.838,12.837v396.544c0,7.074-5.759,12.837-12.838,12.837    H134.964c-7.079,0-12.837-5.763-12.837-12.837V37.991z"/><path d="M355.335,0H115.302c-7.505,0-13.611,6.203-13.611,13.825v442.987c0,7.622,6.106,13.822,13.611,13.822h240.033    c7.506,0,13.609-6.2,13.609-13.822V13.825C368.944,6.203,362.846,0,355.335,0z M113.54,13.825c0-1.089,0.79-1.976,1.762-1.976    h240.033c0.97,0,1.762,0.886,1.762,1.976v442.987c0,1.087-0.792,1.976-1.762,1.976H115.302c-0.973,0-1.762-0.889-1.762-1.976    V13.825L113.54,13.825z"/><path d="M208.782,39.997h49.376c1.087,0,1.975-0.884,1.975-1.973c0-1.092-0.888-1.976-1.975-1.976h-49.376    c-1.092,0-1.976,0.884-1.976,1.976C206.807,39.113,207.683,39.997,208.782,39.997z"/></g><g transform="matrix(-0.12748733162879944 0 0 0.12748733162879944 117.5000015661135 57.5)" id="L1_6"><path d="M135.817,396.216H334.82c1.635,0,2.96-1.325,2.96-2.96V63.429c0-1.636-1.325-2.963-2.96-2.963H135.817    c-1.635,0-2.963,1.328-2.963,2.963v329.827C132.854,394.891,134.182,396.216,135.817,396.216z M138.78,66.392h193.075v323.898    H138.78V66.392L138.78,66.392z" fill="#000000"/><path d="M170.212,408.023h-5.647l1.445-2.412c0.277-0.478,0.127-1.076-0.34-1.36c-0.479-0.274-1.074-0.133-1.358,0.34    l-2.432,4.052c-0.175,0.3-0.183,0.671-0.015,0.98l1.919,3.555c0.173,0.335,0.513,0.518,0.869,0.518    c0.157,0,0.325-0.04,0.475-0.122c0.479-0.259,0.655-0.857,0.394-1.34l-1.209-2.245h5.901c0.546,0,0.99-0.441,0.99-0.99    C171.203,408.455,170.758,408.023,170.212,408.023z" fill="#000000"/><path d="M239.118,409.313 245.95,409.313 245.95,403.291 239.118,404.25z" fill="#000000"/><path d="M239.118,414.812 245.95,416.589 245.95,410.13 239.118,410.13z" fill="#000000"/><path d="M313.219,404.606c-2.59,0-4.697,2.117-4.697,4.707c0,0.863,0.3,1.63,0.7,2.325l-2.854,2.245    c-0.427,0.34-0.503,0.954-0.162,1.391c0.188,0.244,0.482,0.376,0.771,0.376c0.213,0,0.427-0.071,0.609-0.203l2.986-2.346    c0.767,0.538,1.645,0.924,2.646,0.924c2.6,0,4.707-2.117,4.707-4.712C317.926,406.723,315.818,404.606,313.219,404.606z     M313.219,412.04c-1.498,0-2.728-1.224-2.728-2.732c0-1.508,1.229-2.731,2.728-2.731c1.503,0,2.731,1.224,2.731,2.731    C315.95,410.816,314.727,412.04,313.219,412.04z" fill="#000000"/><path d="M272.94,36.632c1.543,0,2.792,1.252,2.792,2.795c0,1.546-1.249,2.798-2.792,2.798c-1.549,0-2.799-1.252-2.799-2.798    C270.142,37.884,271.392,36.632,272.94,36.632z" fill="#000000"/><path d="M134.964,453.303h200.709c10.35,0,18.759-8.414,18.759-18.764V37.991c0-10.349-8.409-18.763-18.759-18.763H134.964    c-10.349,0-18.763,8.415-18.763,18.763v396.544C116.201,444.878,124.622,453.303,134.964,453.303z M122.126,37.991    c0-7.079,5.758-12.837,12.837-12.837h200.709c7.079,0,12.838,5.758,12.838,12.837v396.544c0,7.074-5.759,12.837-12.838,12.837    H134.964c-7.079,0-12.837-5.763-12.837-12.837V37.991z" fill="#000000"/><path d="M355.335,0H115.302c-7.505,0-13.611,6.203-13.611,13.825v442.987c0,7.622,6.106,13.822,13.611,13.822h240.033    c7.506,0,13.609-6.2,13.609-13.822V13.825C368.944,6.203,362.846,0,355.335,0z M113.54,13.825c0-1.089,0.79-1.976,1.762-1.976    h240.033c0.97,0,1.762,0.886,1.762,1.976v442.987c0,1.087-0.792,1.976-1.762,1.976H115.302c-0.973,0-1.762-0.889-1.762-1.976    V13.825L113.54,13.825z" fill="#000000"/><path d="M208.782,39.997h49.376c1.087,0,1.975-0.884,1.975-1.973c0-1.092-0.888-1.976-1.975-1.976h-49.376    c-1.092,0-1.976,0.884-1.976,1.976C206.807,39.113,207.683,39.997,208.782,39.997z" fill="#000000"/></g><g transform="matrix(0.08743570744991302 0 0 0.08743570744991302 242.5 67.5)" id="L1_7"><path d="M109.956,29.082v399.322c0,16.026,13.043,29.076,29.079,29.076h179.408c16.031,0,29.081-13.04,29.081-29.076V29.082    C347.523,13.05,334.483,0,318.442,0H139.035C123.006,0,109.956,13.05,109.956,29.082z M121.805,29.082    c0-9.496,7.726-17.229,17.229-17.229h179.408c9.506,0,17.229,7.724,17.229,17.229v3.775h-73.824l-3.098-3.714    c-3.168-3.783-11.547-5.814-17.818-5.814h-28.221c-6.551,0-14.536,2.103-17.136,6.124l-2.211,3.405h-71.559V29.082L121.805,29.082    z M254.068,32.857h-53.644l0.127-0.19c0.751-1.153,5.72-3.413,12.159-3.413h28.221C247.106,29.254,252.646,31.323,254.068,32.857z     M121.805,38.78h213.867v377.015H121.805V38.78z M121.805,421.721h213.867v6.683c0,9.496-7.724,17.229-17.229,17.229H139.035    c-9.503,0-17.229-7.733-17.229-17.229V421.721L121.805,421.721z"/><path d="M218.675,55.238h15.193c2.296,0,4.154-1.874,4.154-4.164s-1.858-4.156-4.154-4.156h-15.193    c-2.297,0-4.156,1.866-4.156,4.156C214.511,53.364,216.377,55.238,218.675,55.238z"/><path d="M271.303,43.655c3.199,0,5.795,2.592,5.795,5.792s-2.596,5.792-5.795,5.792c-3.193,0-5.788-2.592-5.788-5.792    S268.109,43.655,271.303,43.655z"/><path d="M314.705,46.446c1.66,0,3.006,1.343,3.006,3.001s-1.346,3.001-3.006,3.001c-1.656,0-3.002-1.343-3.002-3.001    S313.049,46.446,314.705,46.446z"/><path d="M324.475,61.321H130.598c-1.635,0-2.963,1.326-2.963,2.961v319.755c0,1.635,1.328,2.961,2.963,2.961h193.877    c1.63,0,2.961-1.326,2.961-2.961V64.282C327.436,62.647,326.104,61.321,324.475,61.321z M321.509,381.066H133.561V67.245h187.948    V381.066z"/></g><g transform="matrix(0.04269799962639809 0 0 0.04269799962639809 165 165)" id="L1_8"><path d="M336.667,36.592H131.748c-1.635,0-2.963,1.328-2.963,2.963v356.22v30.393c0,1.635,1.328,2.96,2.963,2.96h204.919    c1.635,0,2.96-1.325,2.96-2.96v-30.393V39.555C339.627,37.912,338.302,36.592,336.667,36.592z M333.702,423.196h-198.99V398.73    h198.99V423.196z M333.702,392.805h-198.99V42.518h198.99V392.805z"/><path d="M331.158,442.021c1.99,0,3.605,1.614,3.605,3.6c0,1.99-1.615,3.605-3.605,3.605c-1.985,0-3.601-1.615-3.601-3.605    C327.557,443.635,329.172,442.021,331.158,442.021z"/><path d="M235.832,447.423c-0.317,0-0.523,0.143-0.808,0.183l-0.828-0.04v0.127l-31.413,1.533l31.413,1.793v-0.117l0.851-0.041    c0.287,0.025,0.482,0.168,0.785,0.168c0.513,0,0.876-0.178,1.31-0.295l28.475-1.63l-28.531-1.396    C236.659,447.616,236.322,447.423,235.832,447.423z"/><path d="M177.442,407.886h6.185c1.871,0,3.397,1.468,3.397,3.301c0,1.818-1.526,3.296-3.397,3.296h-6.068    c-0.505,0-0.898,0.401-0.898,0.898c0,0.493,0.393,0.894,0.898,0.894h6.068c2.859,0,5.189-2.285,5.189-5.088    c0-2.813-2.331-5.093-5.189-5.093h-6.185l0.18-0.438l-3.151,1.325l3.151,1.331L177.442,407.886z"/><path d="M232.053,412.156v4.474c0,0.3,0.247,0.544,0.546,0.544h2.829c0.3,0,0.546-0.244,0.546-0.544v-3.65h1.254v3.65    c0,0.3,0.246,0.544,0.546,0.544h2.417c0.3,0,0.538-0.244,0.538-0.544v-4.474h2.493c0.224,0,0.422-0.132,0.508-0.345    c0.082-0.198,0.025-0.438-0.132-0.595l-6.771-6.327c-0.213-0.188-0.546-0.188-0.751,0l-6.495,6.338    c-0.157,0.157-0.195,0.386-0.125,0.589c0.086,0.208,0.285,0.34,0.505,0.34H232.053L232.053,412.156z M236.471,406.027l5.386,5.048    h-1.666c-0.3,0-0.538,0.243-0.538,0.543v4.474h-1.341v-3.651c0-0.299-0.246-0.527-0.538-0.527h-2.346    c-0.299,0-0.538,0.238-0.538,0.527v3.651h-1.745v-4.474c0-0.3-0.246-0.543-0.538-0.543h-1.303L236.471,406.027z"/><path d="M282.384,415.589h8.145c0.568,0,1.036-0.462,1.036-1.035v-1.422h2.371v-2.971v-2.971h-9.82v1.944h-1.722    c-0.568,0-1.036,0.457-1.036,1.031v4.393C281.348,415.122,281.815,415.589,282.384,415.589z M283.419,411.187h6.073v2.32h-6.073    V411.187z"/><path d="M362.214,152.502V61.776c0-3.245-2.519-5.924-5.702-6.186V20.627C356.512,9.25,347.26,0,335.89,0H126.817    c-11.375,0-20.626,9.25-20.626,20.627v427.161c0,11.365,9.252,20.617,20.626,20.617H335.89c11.37,0,20.622-9.252,20.622-20.617    v-27.756c3.184-0.249,5.702-2.93,5.702-6.185v-39.649c0-3.244-2.519-5.926-5.702-6.185V246.401    c3.184-0.254,5.702-2.93,5.702-6.186v-22.231c0-3.255-2.519-5.926-5.702-6.188v-53.118    C359.696,158.425,362.214,155.749,362.214,152.502z M256.054,12.411l-0.949,1.729h-42.612l-0.79-1.729H256.054z M349.804,146.314    c-3.184,0.254-5.703,2.933-5.703,6.188v65.483c0,3.255,2.509,5.923,5.703,6.185v9.866c-3.184,0.254-5.703,2.93-5.703,6.186    v133.987c0,3.255,2.509,5.931,5.703,6.185v27.279c-3.184,0.254-5.703,2.93-5.703,6.185v33.937c0,4.529-3.681,8.216-8.216,8.216    H126.817c-4.535,0-8.216-3.682-8.216-8.216V20.627c0-4.535,3.682-8.216,8.216-8.216h80.557l2.054,4.527    c0.325,0.701,1.019,1.153,1.803,1.153h45.062c0.716,0,1.386-0.396,1.727-1.028l2.539-4.651h75.331    c4.535,0,8.217,3.681,8.217,8.216v41.149c0,3.255,2.514,5.934,5.707,6.188v78.351H349.804z"/></g></defs><g fi:class="KUsePattern"><pattern id="pattern_L1_3" width="350" height="350" patternUnits="userSpaceOnUse"><use xlink:href="#L1_3" x="-350" y="-350"/><use xlink:href="#L1_3" x="0" y="-350"/><use xlink:href="#L1_3" x="350" y="-350"/><use xlink:href="#L1_3" x="-350" y="0"/><use xlink:href="#L1_3" x="0" y="0"/><use xlink:href="#L1_3" x="350" y="0"/><use xlink:href="#L1_3" x="-350" y="350"/><use xlink:href="#L1_3" x="0" y="350"/><use xlink:href="#L1_3" x="350" y="350"/></pattern><rect x="0" y="0" width="100%" height="100%" fill="url(#pattern_L1_3)"/></g><g fi:class="KUsePattern"><pattern id="pattern_L1_4" width="350" height="350" patternUnits="userSpaceOnUse"><use xlink:href="#L1_4" x="-350" y="-350"/><use xlink:href="#L1_4" x="0" y="-350"/><use xlink:href="#L1_4" x="350" y="-350"/><use xlink:href="#L1_4" x="-350" y="0"/><use xlink:href="#L1_4" x="0" y="0"/><use xlink:href="#L1_4" x="350" y="0"/><use xlink:href="#L1_4" x="-350" y="350"/><use xlink:href="#L1_4" x="0" y="350"/><use xlink:href="#L1_4" x="350" y="350"/></pattern><rect x="0" y="0" width="100%" height="100%" fill="url(#pattern_L1_4)"/></g><g fi:class="KUsePattern"><pattern id="pattern_L1_5" width="350" height="350" patternUnits="userSpaceOnUse"><use xlink:href="#L1_5" x="-350" y="-350"/><use xlink:href="#L1_5" x="0" y="-350"/><use xlink:href="#L1_5" x="350" y="-350"/><use xlink:href="#L1_5" x="-350" y="0"/><use xlink:href="#L1_5" x="0" y="0"/><use xlink:href="#L1_5" x="350" y="0"/><use xlink:href="#L1_5" x="-350" y="350"/><use xlink:href="#L1_5" x="0" y="350"/><use xlink:href="#L1_5" x="350" y="350"/></pattern><rect x="0" y="0" width="100%" height="100%" fill="url(#pattern_L1_5)"/></g><g fi:class="KUsePattern"><pattern id="pattern_L1_6" width="350" height="350" patternUnits="userSpaceOnUse"><use xlink:href="#L1_6" x="-350" y="-350"/><use xlink:href="#L1_6" x="0" y="-350"/><use xlink:href="#L1_6" x="350" y="-350"/><use xlink:href="#L1_6" x="-350" y="0"/><use xlink:href="#L1_6" x="0" y="0"/><use xlink:href="#L1_6" x="350" y="0"/><use xlink:href="#L1_6" x="-350" y="350"/><use xlink:href="#L1_6" x="0" y="350"/><use xlink:href="#L1_6" x="350" y="350"/></pattern><rect x="0" y="0" width="100%" height="100%" fill="url(#pattern_L1_6)"/></g><g fi:class="KUsePattern"><pattern id="pattern_L1_7" width="350" height="350" patternUnits="userSpaceOnUse"><use xlink:href="#L1_7" x="-350" y="-350"/><use xlink:href="#L1_7" x="0" y="-350"/><use xlink:href="#L1_7" x="350" y="-350"/><use xlink:href="#L1_7" x="-350" y="0"/><use xlink:href="#L1_7" x="0" y="0"/><use xlink:href="#L1_7" x="350" y="0"/><use xlink:href="#L1_7" x="-350" y="350"/><use xlink:href="#L1_7" x="0" y="350"/><use xlink:href="#L1_7" x="350" y="350"/></pattern><rect x="0" y="0" width="100%" height="100%" fill="url(#pattern_L1_7)"/></g><g fi:class="KUsePattern"><pattern id="pattern_L1_8" width="350" height="350" patternUnits="userSpaceOnUse"><use xlink:href="#L1_8" x="-350" y="-350"/><use xlink:href="#L1_8" x="0" y="-350"/><use xlink:href="#L1_8" x="350" y="-350"/><use xlink:href="#L1_8" x="-350" y="0"/><use xlink:href="#L1_8" x="0" y="0"/><use xlink:href="#L1_8" x="350" y="0"/><use xlink:href="#L1_8" x="-350" y="350"/><use xlink:href="#L1_8" x="0" y="350"/><use xlink:href="#L1_8" x="350" y="350"/></pattern><rect x="0" y="0" width="100%" height="100%" fill="url(#pattern_L1_8)"/></g></svg>